<?xml version="1.0" encoding="iso-8859-1"?>
<!-- Uploaded to: SVG Repo, www.svgrepo.com, Generator: SVG Repo Mixer Tools -->
<svg fill="#000000" height="800px" width="800px" version="1.1" id="Layer_1" xmlns="http://www.w3.org/2000/svg" xmlns:xlink="http://www.w3.org/1999/xlink" 
	 viewBox="0 0 512 512" xml:space="preserve">
<g>
	<g>
		<path d="M408.772,256c11.582-10.037,22.114-20.062,31.393-29.927c48.223-51.27,47.031-81.631,37.538-98.073
			c-9.494-16.443-35.195-32.656-103.702-16.527c-13.182,3.103-27.131,7.212-41.614,12.223c-2.902-15.049-6.317-29.183-10.221-42.151
			C301.877,14.148,274.985,0,256.001,0s-45.875,14.148-66.164,81.546c-3.904,12.968-7.32,27.103-10.221,42.151
			c-14.483-5.011-28.432-9.121-41.615-12.223C69.49,95.346,43.791,111.56,34.297,128.001c-9.493,16.441-10.685,46.803,37.538,98.073
			c9.279,9.865,19.811,19.89,31.393,29.927c-11.582,10.037-22.114,20.062-31.393,29.927c-48.224,51.27-47.031,81.632-37.538,98.073
			c6.726,11.648,21.58,23.182,54.038,23.182c13.355,0,29.693-1.954,49.664-6.655c13.182-3.103,27.131-7.212,41.615-12.223
			c2.902,15.049,6.317,29.183,10.221,42.151c20.29,67.396,47.18,81.544,66.165,81.544s45.875-14.148,66.164-81.546
			c3.904-12.968,7.32-27.103,10.221-42.151c14.483,5.011,28.432,9.12,41.614,12.223c19.975,4.703,36.308,6.656,49.664,6.655
			c32.452,0,47.313-11.535,54.038-23.182c9.493-16.441,10.686-46.803-37.538-98.073C430.886,276.062,420.354,266.037,408.772,256z
			 M130.819,370.014c-47.631,11.213-66.206,3.798-69.373-1.688c-3.167-5.486-0.3-25.28,33.225-60.923
			c9.661-10.271,20.815-20.754,33.2-31.257c13.01,10.068,26.957,20.046,41.644,29.787c1.093,17.589,2.761,34.657,4.974,50.958
			C159.199,362.364,144.545,366.783,130.819,370.014z M168.058,266.935c-5.107-3.628-10.099-7.275-14.953-10.935
			c4.855-3.66,9.846-7.308,14.953-10.935c-0.048,3.633-0.076,7.277-0.076,10.935C167.982,259.658,168.01,263.303,168.058,266.935z
			 M169.515,206.065c-14.687,9.741-28.634,19.719-41.644,29.787c-12.385-10.502-23.539-20.985-33.201-31.256
			c-33.525-35.643-36.393-55.436-33.225-60.923c1.96-3.395,9.82-7.53,26.819-7.53c10.468,0,24.401,1.568,42.553,5.841
			c13.726,3.231,28.381,7.65,43.67,13.123C172.275,171.408,170.607,188.477,169.515,206.065z M309.443,185.306
			c-3.122-1.858-6.264-3.704-9.432-5.534c-3.168-1.828-6.338-3.626-9.509-5.401c5.696-2.609,11.35-5.109,16.947-7.482
			C308.192,172.923,308.855,179.069,309.443,185.306z M219.853,90.582c14.105-46.855,29.812-59.235,36.147-59.235
			c6.335,0,22.043,12.38,36.148,59.235c4.065,13.502,7.566,28.403,10.47,44.38c-15.224,6.233-30.839,13.322-46.618,21.172
			c-15.779-7.848-31.394-14.938-46.617-21.171C212.287,118.986,215.789,104.084,219.853,90.582z M204.553,166.89
			c5.598,2.374,11.251,4.872,16.946,7.482c-3.17,1.775-6.34,3.573-9.508,5.402c-3.168,1.828-6.31,3.674-9.432,5.532
			C203.147,179.069,203.81,172.924,204.553,166.89z M202.559,326.694c3.122,1.858,6.264,3.704,9.431,5.533
			c3.168,1.83,6.338,3.627,9.509,5.402c-5.696,2.609-11.349,5.107-16.946,7.483C203.81,339.077,203.148,332.931,202.559,326.694z
			 M292.149,421.418c-14.105,46.855-29.812,59.235-36.148,59.235c-6.335,0-22.043-12.38-36.147-59.235
			c-4.065-13.502-7.566-28.403-10.47-44.381c15.223-6.233,30.839-13.322,46.617-21.171c15.779,7.848,31.395,14.939,46.618,21.172
			C299.715,393.014,296.214,407.916,292.149,421.418z M307.449,345.111c-5.597-2.374-11.251-4.873-16.947-7.483
			c3.17-1.775,6.339-3.573,9.508-5.402c3.168-1.829,6.311-3.675,9.433-5.533C308.856,332.931,308.192,339.077,307.449,345.111z
			 M312.011,288.338c-8.981,5.688-18.218,11.282-27.675,16.742c-9.457,5.46-18.919,10.662-28.336,15.596
			c-9.417-4.935-18.879-10.137-28.337-15.596c-9.456-5.46-18.692-11.053-27.674-16.741c-0.435-10.622-0.661-21.418-0.661-32.339
			c0-10.92,0.226-21.715,0.661-32.339c8.982-5.687,18.218-11.282,27.674-16.741c9.457-5.46,18.919-10.662,28.337-15.596
			c9.417,4.935,18.879,10.137,28.336,15.596c9.457,5.46,18.693,11.054,27.675,16.742c0.435,10.622,0.661,21.418,0.661,32.338
			C312.673,266.919,312.447,277.715,312.011,288.338z M381.184,141.986c18.154-4.274,32.086-5.841,42.555-5.841
			c16.995,0,24.858,4.134,26.818,7.53c3.167,5.487,0.3,25.28-33.225,60.923c-9.661,10.271-20.815,20.754-33.2,31.257
			c-13.01-10.068-26.957-20.045-41.643-29.787c-1.093-17.589-2.761-34.657-4.975-50.959
			C352.802,149.636,367.458,145.217,381.184,141.986z M343.944,245.065c5.107,3.627,10.098,7.275,14.953,10.935
			c-4.855,3.66-9.845,7.307-14.953,10.935c0.048-3.633,0.076-7.277,0.076-10.935C344.021,252.342,343.992,248.698,343.944,245.065z
			 M450.556,368.327c-3.167,5.487-21.747,12.898-69.373,1.688c-13.726-3.231-28.382-7.65-43.669-13.123
			c2.214-16.3,3.882-33.369,4.975-50.959c14.686-9.741,28.634-19.719,41.643-29.787c12.384,10.503,23.538,20.987,33.2,31.257
			C450.856,343.046,453.724,362.841,450.556,368.327z"/>
	</g>
</g>
<g>
	<g>
		<polygon points="274.734,244.921 255.6,233.938 236.522,245.017 236.577,267.079 255.71,278.062 274.789,266.983 		"/>
	</g>
</g>
</svg>